<svg viewBox="0 0 144 108" xmlns="http://www.w3.org/2000/svg" xmlns:xlink="http://www.w3.org/1999/xlink"><svg height="36" width="36" viewBox="-4 -4 36 36" id="menu_28" xmlns="http://www.w3.org/2000/svg"><g fill="none" fill-rule="evenodd"><path d="M0 0h28v28H0z" opacity=".04"></path><path d="M5.5 8a1 1 0 110-2h17a1 1 0 010 2zm0 7a1 1 0 010-2h17a1 1 0 010 2zm0 7a1 1 0 010-2h17a1 1 0 010 2z" fill="#99a2ad" fill-rule="nonzero"></path></g></svg><svg height="36" width="36" viewBox="-4 -4 36 36" id="menu_active_28" x="36" xmlns="http://www.w3.org/2000/svg"><g fill="none" fill-rule="evenodd"><path d="M0 0h28v28H0z" opacity=".04"></path><path d="M5 7.5a1 1 0 110-2h18a1 1 0 010 2zM5 15a1 1 0 010-2h18a1 1 0 010 2zm0 7.5a1 1 0 010-2h18a1 1 0 010 2z" fill="#2975cc" fill-rule="nonzero"></path></g></svg><svg height="36" width="36" viewBox="-4 -4 36 36" id="messages_28" y="36" xmlns="http://www.w3.org/2000/svg"><g fill="none" fill-rule="evenodd"><path d="M0 0h28v28H0z" opacity=".04"></path><path d="M3.952 25.001a1.434 1.434 0 01-1.363-2.023c.911-2.015 1.413-3.498 1.514-4.379C3.062 17.073 2.5 15.323 2.5 13.5c0-5.56 5.18-10 11.5-10s11.5 4.44 11.5 10-5.18 10-11.5 10c-1.355 0-2.678-.204-3.924-.597-1.402 1.306-3.458 1.994-6.124 2.098zm5.085-3.9a1 1 0 011.111-.287c1.202.45 2.506.686 3.852.686 5.278 0 9.5-3.619 9.5-8s-4.222-8-9.5-8-9.5 3.619-9.5 8c0 1.508.497 2.955 1.426 4.213a1 1 0 01.196.598c-.004 1.047-.45 2.567-1.33 4.627 1.987-.208 3.388-.831 4.245-1.837z" fill="#99a2ad" fill-rule="nonzero"></path></g></svg><svg height="36" width="36" viewBox="-4 -4 36 36" id="messages_active_28" x="36" y="36" xmlns="http://www.w3.org/2000/svg"><g fill="none" fill-rule="evenodd"><path d="M0 0h28v28H0z" opacity=".04"></path><path d="M3.659 25.443a1.544 1.544 0 01-1.472-2.173c.767-1.717 1.305-3.134 1.615-4.238-1.143-1.638-1.762-3.53-1.762-5.503C2.04 7.68 7.432 3 14.02 3 20.607 3 26 7.68 26 13.529s-5.393 10.529-11.98 10.529c-1.284 0-2.541-.178-3.736-.522-1.644 1.17-3.859 1.797-6.625 1.907zm5.791-3.786a1 1 0 01.953-.177c1.142.38 2.363.578 3.617.578 5.54 0 9.98-3.853 9.98-8.53C24 8.854 19.56 5 14.02 5c-5.541 0-9.98 3.853-9.98 8.529 0 1.686.574 3.3 1.641 4.684a1 1 0 01.18.846c-.277 1.15-.793 2.595-1.547 4.342 2.251-.182 3.957-.772 5.136-1.744z" fill="#2975cc" fill-rule="nonzero"></path></g></svg><svg height="36" width="36" viewBox="-4 -4 36 36" id="newsfeed_28" x="72" xmlns="http://www.w3.org/2000/svg"><g fill="none" fill-rule="evenodd"><path d="M0 0h28v28H0z" opacity=".04"></path><path d="M22.5 9v-.654c0-1.068-.073-1.449-.283-1.84a1.726 1.726 0 00-.723-.723c-.391-.21-.772-.283-1.84-.283H8.346c-1.068 0-1.449.073-1.84.283a1.727 1.727 0 00-.723.723c-.21.391-.283.772-.283 1.84V9zm0 2h-17v8.654c0 1.068.073 1.449.283 1.84.168.314.409.555.723.723.391.21.772.283 1.84.283h11.308c1.068 0 1.449-.073 1.84-.283.314-.168.555-.409.723-.723.21-.391.283-.772.283-1.84zM8.346 3.5h11.308c1.37 0 2.063.134 2.783.519.663.355 1.19.881 1.544 1.544.385.72.519 1.413.519 2.783v11.308c0 1.37-.134 2.063-.519 2.783a3.726 3.726 0 01-1.544 1.544c-.72.385-1.413.519-2.783.519H8.346c-1.37 0-2.063-.134-2.783-.519a3.726 3.726 0 01-1.544-1.544c-.385-.72-.519-1.413-.519-2.783V8.346c0-1.37.134-2.063.519-2.783A3.726 3.726 0 015.563 4.02c.72-.385 1.413-.519 2.783-.519z" fill="#99a2ad" fill-rule="nonzero"></path></g></svg><svg height="36" width="36" viewBox="-4 -4 36 36" id="newsfeed_active_28" x="72" y="36" xmlns="http://www.w3.org/2000/svg"><g fill="none" fill-rule="evenodd"><path d="M0 0h28v28H0z" opacity=".04"></path><path d="M23 9V7.846c0-1.068-.073-1.449-.283-1.84a1.726 1.726 0 00-.723-.723c-.391-.21-.772-.283-1.84-.283H7.846c-1.068 0-1.449.073-1.84.283a1.727 1.727 0 00-.723.723c-.21.391-.283.772-.283 1.84V9zm0 2H5v9.154c0 1.068.073 1.449.283 1.84.168.314.409.555.723.723.391.21.772.283 1.84.283h12.308c1.068 0 1.449-.073 1.84-.283.314-.168.555-.409.723-.723.21-.391.283-.772.283-1.84zM7.846 3h12.308c1.37 0 2.063.134 2.783.519.663.355 1.19.881 1.544 1.544.385.72.519 1.413.519 2.783v12.308c0 1.37-.134 2.063-.519 2.783a3.726 3.726 0 01-1.544 1.544c-.72.385-1.413.519-2.783.519H7.846c-1.37 0-2.063-.134-2.783-.519a3.726 3.726 0 01-1.544-1.544C3.134 22.217 3 21.524 3 20.154V7.846c0-1.37.134-2.063.519-2.783A3.726 3.726 0 015.063 3.52C5.783 3.134 6.476 3 7.846 3z" fill="#2975cc" fill-rule="nonzero"></path></g></svg><svg height="36" width="36" viewBox="-4 -4 36 36" id="notifications_28" y="72" xmlns="http://www.w3.org/2000/svg"><g fill="none" fill-rule="evenodd"><path d="M0 0h28v28H0z" opacity=".04"></path><path d="M19.995 13.907L20 12.08c0-3.72-2.611-6.58-5.995-6.58C10.618 5.5 8 8.362 8 12.079v1.828c0 .928-.384 1.617-1.212 2.592a44.99 44.99 0 01-.28.328c-.76.88-1.008 1.298-1.008 1.761 0 .226.016.347.068.457.124.264.488.455 1.432.455h14c.914 0 1.286-.192 1.423-.46.059-.117.077-.241.077-.452 0-.463-.248-.88-1.009-1.76l-.282-.328c-.828-.976-1.214-1.665-1.214-2.593zM18.4 21.5c-.669 2.264-2.187 3.5-4.4 3.5s-3.731-1.236-4.4-3.5H7c-1.665 0-2.758-.574-3.242-1.604-.21-.446-.258-.809-.258-1.308 0-1.113.425-1.83 1.493-3.068.139-.16.203-.235.27-.314.539-.635.737-.99.737-1.299V12.08C6 7.296 9.472 3.5 14.005 3.5 18.535 3.5 22 7.294 22 12.081l-.005 1.827c0 .307.2.663.739 1.297.067.08.13.154.27.314 1.07 1.239 1.496 1.955 1.496 3.07 0 .5-.057.89-.294 1.357C23.7 20.94 22.618 21.5 21 21.5zm-2.12 0h-4.56c.451 1.043 1.178 1.5 2.28 1.5s1.829-.457 2.28-1.5z" fill="#99a2ad" fill-rule="nonzero"></path></g></svg><svg height="36" width="36" viewBox="-4 -4 36 36" id="notifications_active_28" x="36" y="72" xmlns="http://www.w3.org/2000/svg"><g fill="none" fill-rule="evenodd"><path d="M0 0h28v28H0z" opacity=".04"></path><path d="M20.368 11.809C20.368 8.047 17.47 5 14.005 5c-3.467 0-6.373 3.05-6.373 6.806l.004 1.944c0 .793-.309 1.41-.905 2.096-.144.166-.648.703-.673.732C5.308 17.4 5 18.028 5 19.03c0 .46.624.97 1.632.97h14.736c1.008 0 1.632-.51 1.632-.97 0-1.003-.308-1.63-1.056-2.453-.025-.028-.528-.566-.672-.732-.595-.686-.904-1.303-.904-2.095zM18.873 22c-1.006 2.28-2.667 3.5-4.873 3.5s-3.867-1.22-4.873-3.5H6.632C4.599 22 3 20.693 3 19.03c0-1.576.524-2.64 1.579-3.798.048-.053.527-.565.642-.697.31-.357.415-.568.415-.783l-.004-1.943C5.632 6.965 9.412 3 14.005 3c4.592 0 8.363 3.964 8.363 8.809v1.941c0 .217.106.428.415.785.115.132.593.644.641.697C24.477 16.391 25 17.455 25 19.03c0 1.663-1.599 2.97-3.632 2.97zm-2.256 0h-5.234c.657 1.028 1.51 1.5 2.617 1.5 1.108 0 1.96-.472 2.617-1.5z" fill="#2975cc" fill-rule="nonzero"></path></g></svg><svg height="36" width="36" viewBox="-4 -4 36 36" id="search_28" x="72" y="72" xmlns="http://www.w3.org/2000/svg"><g fill="none" fill-rule="evenodd"><path d="M0 0h28v28H0z" opacity=".04"></path><path d="M20.522 18.966l3.756 3.756a1.1 1.1 0 11-1.556 1.556l-3.756-3.756A9.56 9.56 0 0113 22.6a9.6 9.6 0 119.6-9.6 9.56 9.56 0 01-2.078 5.966zM13 20.4a7.4 7.4 0 100-14.8 7.4 7.4 0 000 14.8z" fill="#99a2ad" fill-rule="nonzero"></path></g></svg><svg height="36" width="36" viewBox="-4 -4 36 36" id="search_active_28" x="108" xmlns="http://www.w3.org/2000/svg"><g fill="none" fill-rule="evenodd"><path d="M0 0h28v28H0z" opacity=".04"></path><path d="M20.877 19.322l3.9 3.9a1.1 1.1 0 11-1.555 1.556l-3.9-3.9A10.058 10.058 0 0113 23.1C7.422 23.1 2.9 18.578 2.9 13S7.422 2.9 13 2.9 23.1 7.422 23.1 13c0 2.393-.832 4.591-2.223 6.322zM13 20.9a7.9 7.9 0 100-15.8 7.9 7.9 0 000 15.8z" fill="#2975cc" fill-rule="nonzero"></path></g></svg></svg>